<svg
    width="128"
    height="128"
    viewBox="0 0 80 64"
    fill="none"
    xmlns="http://www.w3.org/2000/svg"
>
    <!-- Desktop Screen -->
    <rect x="8" y="8" width="64" height="48" rx="4" stroke="#333" stroke-width="2" fill="#f5f5f5" />
    
    <!-- TOC Panel -->
    <rect x="16" y="16" width="20" height="32" fill="#007BFF" rx="2" />
    
    <!-- TOC Lines -->
    <rect x="18" y="18" width="16" height="2" fill="white" />
    <rect x="18" y="22" width="14" height="2" fill="white" />
    <rect x="18" y="26" width="16" height="2" fill="white" />
    <rect x="18" y="30" width="12" height="2" fill="white" />
    <rect x="18" y="34" width="14" height="2" fill="white" />
    <rect x="18" y="38" width="16" height="2" fill="white" />

    <!-- Plugin Icons -->
    <!-- WordPress Plugin Icon -->
    <circle cx="44" cy="42" r="6" fill="#21759B" stroke="white" stroke-width="1.5"/>
    <text x="41" y="44" fill="white" font-size="5" font-weight="bold">W</text>

    <!-- Elementor Icon -->
    <rect x="42" y="16" width="8" height="8" fill="#D63AFF" rx="1"/>
    <text x="44" y="22" fill="white" font-size="6" font-weight="bold">E</text>

    <!-- WooCommerce Icon -->
    <rect x="42" y="26" width="8" height="8" fill="#96588A" rx="1"/>
    <text x="43" y="32" fill="white" font-size="6" font-weight="bold">W</text>

    <!-- Divi Icon -->
    <circle cx="54" cy="18" r="5" fill="#8800FF" stroke="white" stroke-width="1.5"/>
    <text x="51" y="20" fill="white" font-size="5" font-weight="bold">D</text>

    <!-- Beaver Builder Icon -->
    <circle cx="54" cy="28" r="5" fill="#E07B42" stroke="white" stroke-width="1.5"/>
    <text x="51" y="30" fill="white" font-size="5" font-weight="bold">B</text>

    <!-- Oxygen Builder Icon -->
    <circle cx="54" cy="38" r="5" fill="#8E3BFF" stroke="white" stroke-width="1.5"/>
    <text x="51" y="40" fill="white" font-size="5" font-weight="bold">O</text>

    <!-- Bricks Builder Icon -->
    <rect x="42" y="48" width="8" height="8" fill="#FF5733" rx="1"/>
    <text x="44" y="54" fill="white" font-size="6" font-weight="bold">B</text>

    <!-- Right Spacing -->
</svg>
