<svg
    width="128"
    height="128"
    viewBox="0 0 48 64"
    fill="none"
    xmlns="http://www.w3.org/2000/svg"
>
    <!-- Tablet Frame -->
    <rect x="4" y="8" width="40" height="48" rx="4" stroke="#333" stroke-width="2" fill="#f0f0f0" />
    
    <!-- TOC Panel (Centered) -->
    <rect x="14" y="20" width="20" height="24" fill="#007BFF" rx="2" />
    
    <!-- TOC Lines -->
    <rect x="16" y="22" width="16" height="2" fill="white" />
    <rect x="16" y="26" width="12" height="2" fill="white" />
    <rect x="16" y="30" width="14" height="2" fill="white" />
    <rect x="16" y="34" width="10" height="2" fill="white" />
    <rect x="16" y="38" width="8" height="2" fill="white" />

    <!-- Left-side Content -->
    <rect x="6" y="20" width="6" height="4" fill="#999" />
    <rect x="6" y="26" width="6" height="4" fill="#ccc" />
    <rect x="6" y="32" width="6" height="4" fill="#bbb" />
    <rect x="6" y="38" width="6" height="4" fill="#ddd" />

    <!-- Right-side Content -->
    <rect x="34" y="20" width="6" height="4" fill="#999" />
    <rect x="34" y="26" width="6" height="4" fill="#ccc" />
    <rect x="34" y="32" width="6" height="4" fill="#bbb" />
    <rect x="34" y="38" width="6" height="4" fill="#ddd" />
</svg>
